# xmcd
#
# Track frame offsets:
#	150
#	11885
#	30634
#	43524
#	58296
#	69820
#	85605
#	106075
#	119675
#	129876
#	145460
#	163529
#	172254
#	187059
#	196384
#	209614
#	223301
#	233687
#	244344
#	257321
#	273588
#	286600
#	306718
#
# Disc length: 4230 seconds
#
# Revision: 0
# Processed by: cddbd v1.5.2PL0 Copyright (c) Steve Scherf et al.
# Submitted via: audiograbber 1.83.01
#
DISCID=5f108417
DTITLE=Stardust - Stardust 025
DYEAR=2000
DGENRE=Country
TTITLE0=I앏l Never Find Another You - Kim Anthony
TTITLE1=Will You Be My Lady - Mark Huhta
TTITLE2=Die With My Boots On - Troy Cook
TTITLE3=Last Small Town In America - Frank Mabry
TTITLE4=Nothing Rings My Chimes - T Jae Christian
TTITLE5=I Need A Heart To Come Home To - Corinda
TTITLE6=My Tru Freind - Brant Miller
TTITLE7=Roll Over Baby - Jimmy Cole
TTITLE8=M Baby압 Arms - William Earl
TTITLE9=What압 Wrong With Being Treated Right - Stephannie Vaugan
TTITLE10=New Fire, Old Flame - Dave Young
TTITLE11=Blame Me - Elliott Pacetti
TTITLE12=Welcome Back Again - J. L. Caldwell
TTITLE13=Only Car In Your Garage - Dick Shuey
TTITLE14=I앐 Still In Love With You - Dr Fry압 Texas Medicine Band
TTITLE15=Home Sweet Home - I앐 Gone - Jerri Arnold
TTITLE16=I Might Fall In Love With You - Tod Davis
TTITLE17=Strange - Bob Norman
TTITLE18=Little Country Girl - B. J. Young
TTITLE19=Angels Eyes - Dan Whitney
TTITLE20=Little Country Girl - Dodie Frost
TTITLE21=Too Many Beds - Danny Grae
TTITLE22=Gabriel압 Trumpet - The Whites
EXTD=
EXTT0=
EXTT1=
EXTT2=
EXTT3=
EXTT4=
EXTT5=
EXTT6=
EXTT7=
EXTT8=
EXTT9=
EXTT10=
EXTT11=
EXTT12=
EXTT13=
EXTT14=
EXTT15=
EXTT16=
EXTT17=
EXTT18=
EXTT19=
EXTT20=
EXTT21=
EXTT22=
PLAYORDER=
